{"title":"Please Give DvDRip.XviD.Ac3.Feel-Free","uid":5850474,"size":1306724965,"categoryP":"video","categoryS":"movies","magnet":"?xt=urn:btih:3f596a44ce6113713715285788d68bbf581a17c8&amp;dn=Please+Give+DvDRip.XviD.Ac3.Feel-Free&amp;tr=udp%3A%2F%2Ftracker.openbittorrent.com%3A80&amp;tr=udp%3A%2F%2Fopen.demonii.com%3A1337&amp;tr=udp%3A%2F%2Ftracker.coppersurfer.tk%3A6969&amp;tr=udp%3A%2F%2Fexodus.desync.com%3A6969","seeders":0,"leechers":0,"uploader":"neon","files":-1,"time":1285364895,"description":"\n\nIn New York City, a husband and wife butt heads with the granddaughters of the elderly woman who lives in apartment the couple owns\n\nGenre:Comedy | Drama\nLanguage:English\n &lt;a href=&quot; http://www.imdb.com/title/tt0878835/&quot; rel=&quot;nofollow&quot; target=&quot;_NEW&quot;&gt; http://www.imdb.com/title/tt0878835/&lt;/a&gt;\nSource:DVD\n &lt;a href=&quot;\nhttp://www.starshare.ro/bitbucket/Please.Give.DvDRip.XviD.Ac3.Feel-Free.avi_thumbs_%5B2010.09.24_22.04.23%5D.jpg&quot; rel=&quot;nofollow&quot; target=&quot;_NEW&quot;&gt;\nhttp://www.starshare.ro/bitbucket/Please.Give.DvDRip.XviD.Ac3.Feel-Free.avi_thumbs_%5B2010.09.24_22.04.23%5D.jpg&lt;/a&gt;\n\nGeneral\nComplete name :Please.Give.DvDRip.XviD.Ac3.Feel-Free\nFormat : AVI\nFormat/Info : Audio Video Interleave\nFile size : 1.22 GiB\nDuration : 1h 26mn\nOverall bit rate : 2 006 Kbps\nVideo #0\nMuxing mode : Packed bitstream\nCodec ID : XVID\nCodec ID/Hint : XviD\nDuration : 1h 26mn\nBit rate : 1 548 Kbps\nWidth : 688 pixels\nHeight : 288 pixels\nDisplay aspect ratio : 2.35:1\nFrame rate : 25.000 fps\nResolution : 24 bits\nColorimetry : 4:2:0\nScan type : Progressive\nBits/(Pixel*Frame) : 0.313\nStream size : 962 MiB (77%)\nWriting library : XviD 1.2.1 (UTC 2008-12-04)\nAudio #1\nID : 1\nFormat : AC-3\nFormat/Info : Audio Coding 3\nCodec ID : 2000\nDuration : 1h 26mn\nBit rate mode : Constant\nBit rate : 448 Kbps\nChannel(s) : 6 channels\nChannel positions : Front: L C R, Surround: L R, LFE\nSampling rate : 48.0 KHz\nStream size : 278 MiB (22%)\nAlignment : Split accross interleaves\nInterleave, duration : 40 ms (1.00 video frame)\nInterleave, preload duration : 500 ms","torrent":{"xt":"urn:btih:3f596a44ce6113713715285788d68bbf581a17c8","amp;dn":"Please+Give+DvDRip.XviD.Ac3.Feel-Free","amp;tr":["udp%3A%2F%2Ftracker.openbittorrent.com%3A80","udp%3A%2F%2Fopen.demonii.com%3A1337","udp%3A%2F%2Ftracker.coppersurfer.tk%3A6969","udp%3A%2F%2Fexodus.desync.com%3A6969"],"infoHash":"3f596a44ce6113713715285788d68bbf581a17c8","infoHashBuffer":{"type":"Buffer","data":[63,89,106,68,206,97,19,113,55,21,40,87,136,214,139,191,88,26,23,200]},"announce":[],"urlList":[]}}